# File created by Blade
# Date/Time:  Tue Apr 07 20:17:56 2015
# Frame Rate: 120.000 fps
#------------------------------------------------------
:FULLY-SPECIFIED
:DEGREES
539
root 5.524052 33.173893 -10.474473 8.882607 -27.710791 -34.347927
Spine 22.428514 20.234206 26.196312
Head -13.974512 0.351036 9.517972
LeftShoulder -20.926747 40.829287 13.922406
LeftArm 51.321476 -35.061353 -81.785389
LeftForeArm -3.682127 -0.000000 14.579916
LeftHand 12.032977 -0.000000 3.154840
LeftHandThumb1 -26.253704 0.000000 33.147579
RightShoulder 6.650912 14.029692 -8.182854
RightArm 18.223962 57.398329 78.504627
RightForeArm 61.325455 -0.000000 23.206850
RightHand 4.360308 0.000000 16.497017
RightHandThumb1 -24.326973 -0.000000 -32.862282
LeftUpLeg -6.197510 6.469481 24.246841
LeftLeg 25.251263 -0.000000 -0.000000
LeftFoot -16.226063 32.499944 -5.977546
LeftToeBase -8.978057 -0.000000 0.000000
RightUpLeg -132.690596 -26.930236 28.784353
RightLeg 82.671332 -0.000000 -0.000000
RightFoot 41.550641 -14.686431 2.811070
RightToeBase 35.635027 -0.000000 -0.000000
540
root 5.512529 33.171907 -10.470922 8.878896 -27.732807 -34.505720
Spine 22.437188 20.249491 26.302146
Head -13.879463 0.345500 9.572320
LeftShoulder -20.971723 40.751107 13.924505
LeftArm 51.222419 -35.636801 -81.691990
LeftForeArm -3.621905 0.000000 14.557788
LeftHand 11.953854 -0.000000 3.414604
LeftHandThumb1 -26.253704 0.000000 33.147579
RightShoulder 6.405921 14.447726 -8.339843
RightArm 18.616939 58.074015 78.422018
RightForeArm 60.836079 -0.000000 23.641263
RightHand 4.334105 -0.000000 16.250481
RightHandThumb1 -24.326973 -0.000000 -32.862282
LeftUpLeg -6.176074 6.463849 24.406782
LeftLeg 25.428576 -0.000000 -0.000000
LeftFoot -16.380110 32.559015 -6.089158
LeftToeBase -9.129359 -0.000000 0.000000
RightUpLeg -132.904390 -27.025972 28.752753
RightLeg 81.318069 -0.000000 -0.000000
RightFoot 41.763234 -14.471281 2.654937
RightToeBase 35.805806 -0.000000 -0.000000
541
root 5.499987 33.170552 -10.466224 8.862221 -27.730822 -34.688350
Spine 22.462065 20.235332 26.447495
Head -13.807123 0.304469 9.610014
LeftShoulder -21.074471 40.741984 13.861366
LeftArm 51.243675 -36.168994 -81.612653
LeftForeArm -3.756601 -0.000000 14.514660
LeftHand 11.925508 -0.000000 3.468584
LeftHandThumb1 -26.253704 0.000000 33.147579
RightShoulder 6.094835 14.818626 -8.551389
RightArm 19.187403 58.681287 78.509513
RightForeArm 60.443019 -0.000000 24.084814
RightHand 4.276665 -0.000000 16.278928
RightHandThumb1 -24.326973 -0.000000 -32.862282
LeftUpLeg -6.127738 6.463613 24.599601
LeftLeg 25.584982 -0.000000 -0.000000
LeftFoot -16.501515 32.560975 -6.135277
LeftToeBase -9.204184 -0.000000 0.000000
RightUpLeg -133.098037 -27.161677 28.737856
RightLeg 79.897441 -0.000000 -0.000000
RightFoot 41.931834 -14.368051 2.505418
RightToeBase 36.117955 -0.000000 -0.000000
542
root 5.487377 33.168872 -10.461417 8.834045 -27.718535 -34.858797
Spine 22.488037 20.185974 26.588269
Head -13.727395 0.257722 9.598364
LeftShoulder -21.130094 40.713193 13.813370
LeftArm 51.156969 -36.721576 -81.472630
LeftForeArm -3.813323 -0.000000 14.499875
LeftHand 12.003264 0.000000 3.478619
LeftHandThumb1 -26.253704 0.000000 33.147579
RightShoulder 5.762914 15.240857 -8.784757
RightArm 19.817988 59.337159 78.707312
RightForeArm 59.927004 0.000000 24.636689
RightHand 3.962859 -0.000000 16.253572
RightHandThumb1 -24.326973 -0.000000 -32.862282
LeftUpLeg -6.058506 6.451993 24.776538
LeftLeg 25.698840 -0.000000 -0.000000
LeftFoot -16.605156 32.602052 -6.119586
LeftToeBase -9.094834 -0.000000 0.000000
RightUpLeg -133.298592 -27.310278 28.720991
RightLeg 78.424901 -0.000000 -0.000000
RightFoot 42.026529 -14.369763 2.369847
RightToeBase 36.257776 -0.000000 -0.000000
543
root 5.476134 33.168399 -10.455182 8.804508 -27.674684 -35.025947
Spine 22.492781 20.133654 26.733652
Head -13.624294 0.190326 9.624802
LeftShoulder -21.172597 40.708401 13.779715
LeftArm 51.148433 -37.272555 -81.408309
LeftForeArm -3.823536 0.000000 14.491587
LeftHand 12.016583 -0.000000 3.382877
LeftHandThumb1 -26.253704 0.000000 33.147579
RightShoulder 5.519702 15.603332 -9.005163
RightArm 20.340487 59.920906 78.713405
RightForeArm 59.696039 -0.000000 25.196167
RightHand 3.934977 -0.000000 16.334421
RightHandThumb1 -24.326973 -0.000000 -32.862282
LeftUpLeg -5.992649 6.383628 24.943368
LeftLeg 25.787330 -0.000000 -0.000000
LeftFoot -16.695311 32.652558 -6.091363
LeftToeBase -8.722048 -0.000000 0.000000
RightUpLeg -133.509814 -27.488557 28.724595
RightLeg 76.876849 -0.000000 -0.000000
RightFoot 42.038699 -14.492717 2.277989
RightToeBase 36.657523 -0.000000 -0.000000
544
root 5.469313 33.173569 -10.439201 8.693673 -27.527196 -35.285789
Spine 22.593038 19.931529 27.089999
Head -13.497082 0.105684 9.530185
LeftShoulder -21.214400 40.710527 13.657345
LeftArm 51.167321 -37.807587 -81.356516
LeftForeArm -3.848340 0.000000 14.506231
LeftHand 12.085121 -0.000000 3.248816
LeftHandThumb1 -26.253704 0.000000 33.147579
RightShoulder 5.214208 16.087487 -9.286093
RightArm 20.769084 60.500414 78.610102
RightForeArm 59.406361 0.000000 25.714352
RightHand 3.808141 0.000000 16.494874
RightHandThumb1 -24.326973 -0.000000 -32.862282
LeftUpLeg -5.832268 6.152783 25.202519
LeftLeg 25.851901 -0.000000 -0.000000
LeftFoot -16.774451 32.741746 -6.060968
LeftToeBase -8.698535 -0.000000 0.000000
RightUpLeg -133.675125 -27.845063 28.867176
RightLeg 75.310695 -0.000000 -0.000000
RightFoot 41.962753 -14.568499 2.270229
RightToeBase 36.962058 -0.000000 -0.000000
545
root 5.456887 33.174073 -10.442673 8.812466 -27.537882 -35.497805
Spine 22.479172 19.985421 27.222748
Head -13.329987 0.066462 9.574905
LeftShoulder -21.225108 40.676966 13.664877
LeftArm 51.039389 -38.302238 -81.166511
LeftForeArm -3.959157 -0.000000 14.516264
LeftHand 12.052186 -0.000000 3.408810
LeftHandThumb1 -26.253704 0.000000 33.147579
RightShoulder 4.924856 16.516969 -9.503364
RightArm 21.847021 61.410024 79.220282
RightForeArm 58.488911 -0.000000 26.323241
RightHand 3.701755 -0.000000 16.429517
RightHandThumb1 -24.326973 -0.000000 -32.862282
LeftUpLeg -5.881751 6.199141 25.414104
LeftLeg 25.969004 -0.000000 -0.000000
LeftFoot -16.845304 32.733207 -6.056808
LeftToeBase -8.935477 -0.000000 0.000000
RightUpLeg -133.916509 -27.900583 28.922080
RightLeg 73.583225 -0.000000 -0.000000
RightFoot 41.930599 -14.729920 2.291241
RightToeBase 36.963936 -0.000000 -0.000000
546
root 5.444897 33.175506 -10.449894 8.985172 -27.564702 -35.733747
Spine 22.324845 20.087519 27.363824
Head -13.127437 0.039966 9.648444
LeftShoulder -21.250459 40.688866 13.676850
LeftArm 51.046290 -38.800228 -81.141488
LeftForeArm -3.927003 0.000000 14.542504
LeftHand 12.053626 0.000000 3.514813
LeftHandThumb1 -26.253704 0.000000 33.147579
RightShoulder 4.643994 17.025098 -9.685241
RightArm 22.295775 61.892487 79.133110
RightForeArm 58.215451 -0.000000 27.059288
RightHand 3.470491 -0.000000 16.311132
RightHandThumb1 -24.326973 -0.000000 -32.862282
LeftUpLeg -5.974897 6.273266 25.642282
LeftLeg 26.095286 -0.000000 -0.000000
LeftFoot -16.910564 32.759198 -6.069293
LeftToeBase -8.923942 -0.000000 0.000000
RightUpLeg -134.164980 -27.925554 28.997334
RightLeg 71.754240 -0.000000 -0.000000
RightFoot 41.925168 -14.911600 2.356337
RightToeBase 37.737691 -0.000000 -0.000000
547
root 5.432149 33.177399 -10.460013 9.247262 -27.616240 -35.991436
Spine 22.076574 20.253537 27.481899
Head -12.855235 0.028733 9.770371
LeftShoulder -21.271837 40.736680 13.698622
LeftArm 51.059635 -39.292244 -81.111328
LeftForeArm -3.968307 -0.000000 14.578127
LeftHand 12.026988 0.000000 3.579160
LeftHandThumb1 -26.253704 0.000000 33.147579
RightShoulder 4.401447 17.549440 -9.837037
RightArm 22.474240 62.241052 78.743536
RightForeArm 58.215774 -0.000000 27.839187
RightHand 3.404151 -0.000000 16.098647
RightHandThumb1 -24.326973 -0.000000 -32.862282
LeftUpLeg -6.137789 6.431562 25.883281
LeftLeg 26.244990 -0.000000 -0.000000
LeftFoot -16.965022 32.758295 -6.075982
LeftToeBase -8.632341 -0.000000 0.000000
RightUpLeg -134.431984 -27.856013 29.092553
RightLeg 69.881081 -0.000000 -0.000000
RightFoot 41.840146 -15.080687 2.346677
RightToeBase 37.347115 -0.000000 -0.000000
548
root 5.423495 33.185469 -10.459613 9.330553 -27.655335 -36.260649
Spine 22.031944 20.292918 27.716707
Head -12.593220 0.006838 9.856441
LeftShoulder -21.264443 40.707401 13.704811
LeftArm 51.032962 -39.827676 -81.142231
LeftForeArm -4.004503 -0.000000 14.624505
LeftHand 12.072428 -0.000000 3.591375
LeftHandThumb1 -26.253704 0.000000 33.147579
RightShoulder 4.103977 18.065339 -10.055124
RightArm 23.104880 62.651661 78.741736
RightForeArm 58.148496 -0.000000 28.472212
RightHand 3.280558 0.000000 16.071491
RightHandThumb1 -24.326973 -0.000000 -32.862282
LeftUpLeg -6.089254 6.483532 26.144457
LeftLeg 26.310190 -0.000000 -0.000000
LeftFoot -16.951171 32.770631 -5.986541
LeftToeBase -8.558994 -0.000000 0.000000
RightUpLeg -134.594773 -27.860767 29.268608
RightLeg 67.938037 -0.000000 -0.000000
RightFoot 41.778709 -15.581882 2.426034
RightToeBase 37.823747 -0.000000 -0.000000
549
root 5.416664 33.193708 -10.463959 9.497569 -27.697875 -36.473671
Spine 21.864792 20.398527 27.835627
Head -12.321498 -0.021155 10.032817
LeftShoulder -21.236760 40.643626 13.746377
LeftArm 50.920552 -40.308390 -81.094382
LeftForeArm -4.093838 -0.000000 14.725807
LeftHand 12.101456 -0.000000 3.788210
LeftHandThumb1 -26.253704 0.000000 33.147579
RightShoulder 3.867656 18.719390 -10.222690
RightArm 23.503212 63.127582 78.488896
RightForeArm 58.017651 0.000000 29.053949
RightHand 3.151573 0.000000 16.126221
RightHandThumb1 -24.326973 -0.000000 -32.862282
LeftUpLeg -6.139319 6.569057 26.342245
LeftLeg 26.360105 -0.000000 -0.000000
LeftFoot -16.961506 32.757170 -6.021209
LeftToeBase -8.593028 -0.000000 0.000000
RightUpLeg -134.848115 -27.832993 29.440249
RightLeg 65.883502 -0.000000 -0.000000
RightFoot 41.843547 -16.157600 2.684894
RightToeBase 37.849253 -0.000000 -0.000000
550
root 5.412953 33.215253 -10.443344 9.390067 -27.575535 -36.861521
Spine 22.000685 20.121169 28.342255
Head -12.035475 -0.022290 10.015989
LeftShoulder -21.307699 40.616830 13.581592
LeftArm 50.946764 -40.831707 -81.212653
LeftForeArm -3.939121 -0.000000 14.842117
LeftHand 12.080988 -0.000000 3.852269
LeftHandThumb1 -26.253704 0.000000 33.147579
RightShoulder 3.710199 19.416494 -10.505858
RightArm 23.847503 63.594502 78.131174
RightForeArm 57.988099 -0.000000 29.526917
RightHand 3.288914 -0.000000 16.359281
RightHandThumb1 -24.326973 -0.000000 -32.862282
LeftUpLeg -5.853747 6.364187 26.732290
LeftLeg 26.311531 -0.000000 -0.000000
LeftFoot -16.957613 32.778729 -6.017565
LeftToeBase -8.526397 -0.000000 0.000000
RightUpLeg -134.915755 -28.127020 29.834877
RightLeg 63.898237 -0.000000 -0.000000
RightFoot 41.805213 -16.391872 2.766396
RightToeBase 38.194885 -0.000000 -0.000000
551
root 5.402665 33.232967 -10.432147 9.479486 -27.514467 -37.202840
Spine 21.907022 20.059774 28.659508
Head -11.743916 -0.031339 10.153162
LeftShoulder -21.371097 40.630220 13.497019
LeftArm 51.012546 -41.306005 -81.296737
LeftForeArm -3.994992 0.000000 14.930690
LeftHand 12.120942 -0.000000 4.042417
LeftHandThumb1 -26.253704 0.000000 33.147579
RightShoulder 3.585131 20.199847 -10.691634
RightArm 23.882758 64.138449 77.517726
RightForeArm 57.916640 -0.000000 30.150668
RightHand 3.177392 -0.000000 16.572453
RightHandThumb1 -24.326973 -0.000000 -32.862282
LeftUpLeg -5.744245 6.354810 27.077397
LeftLeg 26.271182 -0.000000 -0.000000
LeftFoot -16.978154 32.714791 -6.003093
LeftToeBase -8.471347 -0.000000 0.000000
RightUpLeg -135.138548 -28.246135 30.225776
RightLeg 61.833562 -0.000000 -0.000000
RightFoot 41.800257 -16.535423 2.879584
RightToeBase 38.521614 -0.000000 -0.000000
